<svg width="22" height="19" viewBox="0 0 22 19" fill="none" xmlns="http://www.w3.org/2000/svg">
<path d="M10.8 19L15.35 7H17.45L22 19H19.9L18.825 15.95H13.975L12.9 19H10.8ZM14.6 14.2H18.2L16.4 9.1L14.6 14.2ZM5.25 13C4.15 13 3.12083 12.6792 2.1625 12.0375C1.20417 11.3958 0.483333 10.5333 0 9.45L1.8 8.55C2.15 9.25 2.63333 9.83333 3.25 10.3C3.86667 10.7667 4.525 11 5.225 11C5.85833 11 6.37917 10.8042 6.7875 10.4125C7.19583 10.0208 7.4 9.55 7.4 9C7.4 8.45 7.20417 7.97917 6.8125 7.5875C6.42083 7.19583 5.95 7 5.4 7H3.9V5H5.4C5.81667 5 6.17083 4.85417 6.4625 4.5625C6.75417 4.27083 6.9 3.91667 6.9 3.5C6.9 3.08333 6.75833 2.72917 6.475 2.4375C6.19167 2.14583 5.84167 2 5.425 2C5.04167 2 4.7 2.125 4.4 2.375C4.1 2.625 3.83333 2.9 3.6 3.2L2.025 1.975C2.45833 1.44167 2.95833 0.979167 3.525 0.5875C4.09167 0.195833 4.73333 0 5.45 0C6.4 0 7.2125 0.3375 7.8875 1.0125C8.5625 1.6875 8.9 2.50833 8.9 3.475C8.9 3.925 8.81667 4.3625 8.65 4.7875C8.48333 5.2125 8.24167 5.59167 7.925 5.925C8.09167 6.09167 8.24583 6.2625 8.3875 6.4375C8.52917 6.6125 8.66667 6.8 8.8 7H11.9V2H9.9V0H15.9V2H13.9V4.9L12.375 9H9.4V9.1C9.4 10.15 9.01667 11.0625 8.25 11.8375C7.48333 12.6125 6.48333 13 5.25 13Z" fill="#334155"/>
</svg>
