<svg width="32" height="32" viewBox="0 0 32 32" fill="none" xmlns="http://www.w3.org/2000/svg">
<path fill-rule="evenodd" clip-rule="evenodd" d="M22.6465 27.3652C21.2237 31.199 17.075 32.8866 13.3799 31.1347C12.7641 30.8427 12.4563 30.0882 12.6934 29.4492L13.5635 27.1035C14.0509 27.2924 14.6163 27.1907 15.041 26.7783L27.2696 14.9052L22.6465 27.3652ZM21.9668 4.46187C23.3898 0.62811 27.5393 -1.05966 31.2344 0.692336C31.8499 0.984372 32.1567 1.7391 31.9199 2.37788L27.9502 13.0712C27.424 12.7607 26.7558 12.8277 26.2705 13.2988L14.416 24.8066L21.9668 4.46187ZM0.623067 1.62007C4.09329 -0.644466 8.43443 0.511864 10.3194 4.2021L14.5225 12.4296C16.4073 16.1198 15.1222 20.9471 11.6524 23.2119C11.0741 23.5892 10.3504 23.397 10.0362 22.7822L0.144551 3.41695C-0.169301 2.80196 0.0448491 1.99744 0.623067 1.62007Z" fill="url(#paint0_linear_336_6191)"/>
<defs>
<linearGradient id="paint0_linear_336_6191" x1="1.84056" y1="2.94251" x2="22.4758" y2="50.3878" gradientUnits="userSpaceOnUse">
<stop stop-color="#FFB65C"/>
<stop offset="0.25" stop-color="#FFA143"/>
<stop offset="0.5" stop-color="#F43B5E"/>
</linearGradient>
</defs>
</svg>
